<svg width="77" height="52" viewBox="0 0 77 52" fill="none" xmlns="http://www.w3.org/2000/svg">
<path d="M1.59801 33V18.4545H6.78267C7.9143 18.4545 8.8518 18.6605 9.59517 19.0724C10.3385 19.4844 10.8949 20.0478 11.2642 20.7628C11.6335 21.473 11.8182 22.2732 11.8182 23.1634C11.8182 24.0582 11.6312 24.8632 11.2571 25.5781C10.8878 26.2884 10.3291 26.8518 9.58097 27.2685C8.83759 27.6804 7.90246 27.8864 6.77557 27.8864H3.21023V26.0256H6.5767C7.29167 26.0256 7.87169 25.9025 8.31676 25.6562C8.76184 25.4053 9.08854 25.0644 9.29688 24.6335C9.50521 24.2027 9.60938 23.7126 9.60938 23.1634C9.60938 22.6141 9.50521 22.1264 9.29688 21.7003C9.08854 21.2741 8.75947 20.9403 8.30966 20.6989C7.86458 20.4574 7.27746 20.3366 6.5483 20.3366H3.79261V33H1.59801ZM37.7575 18.4545V33H35.5629V18.4545H37.7575ZM58.3274 23.1847H56.1115C56.0263 22.7112 55.8677 22.2945 55.6357 21.9347C55.4036 21.5748 55.1196 21.2694 54.7834 21.0185C54.4472 20.7675 54.0708 20.5781 53.6541 20.4503C53.2422 20.3224 52.8042 20.2585 52.3402 20.2585C51.5021 20.2585 50.7517 20.4692 50.0888 20.8906C49.4306 21.312 48.9098 21.9299 48.5263 22.7443C48.1475 23.5587 47.9581 24.553 47.9581 25.7273C47.9581 26.911 48.1475 27.91 48.5263 28.7244C48.9098 29.5388 49.433 30.1544 50.0959 30.571C50.7588 30.9877 51.5045 31.196 52.3331 31.196C52.7924 31.196 53.228 31.1345 53.6399 31.0114C54.0566 30.8835 54.433 30.6965 54.7692 30.4503C55.1054 30.2041 55.3894 29.9034 55.6214 29.5483C55.8582 29.1884 56.0215 28.7765 56.1115 28.3125L58.3274 28.3196C58.209 29.0346 57.9794 29.6927 57.6385 30.294C57.3023 30.8906 56.8691 31.4067 56.3388 31.8423C55.8132 32.2732 55.2119 32.607 54.5348 32.8438C53.8577 33.0805 53.1191 33.1989 52.3189 33.1989C51.0594 33.1989 49.9373 32.9006 48.9524 32.304C47.9676 31.7027 47.1911 30.8433 46.6229 29.7259C46.0594 28.6084 45.7777 27.2756 45.7777 25.7273C45.7777 24.1742 46.0618 22.8414 46.63 21.7287C47.1982 20.6113 47.9747 19.7543 48.9595 19.1577C49.9444 18.5563 51.0642 18.2557 52.3189 18.2557C53.0907 18.2557 53.8104 18.367 54.478 18.5895C55.1503 18.8073 55.754 19.1293 56.2891 19.5554C56.8241 19.9768 57.2668 20.4929 57.6172 21.1037C57.9676 21.7098 58.2043 22.4034 58.3274 23.1847ZM66.2464 33V18.4545H75.3658V20.3438H68.4411V24.7756H74.8899V26.6577H68.4411V31.1108H75.451V33H66.2464Z" fill="#E4F1FE"/>
<path d="M24.4236 20.288H27.4217L28.5185 19H17.2574L16.1605 20.288H18.0617C20.0361 20.288 21.8642 20.4 22.5954 21.688H17.2574L16.1605 22.976H22.8148V23.032C22.8148 23.984 21.7911 25.44 18.4273 25.44H16.7455V26.672L23.3267 33H26.3248L19.4511 26.448C22.3029 26.336 24.9354 25.104 25.301 22.976H27.4217L28.5185 21.688H25.2279C25.1548 21.184 24.8623 20.68 24.4236 20.288Z" fill="#E4F1FE"/>
<path d="M10.6565 46V38.9091H11.709V40.017H11.8014C11.9491 39.6385 12.1876 39.3446 12.5169 39.1353C12.8462 38.9229 13.2417 38.8168 13.7033 38.8168C14.1712 38.8168 14.5605 38.9229 14.8713 39.1353C15.1852 39.3446 15.4299 39.6385 15.6053 40.017H15.6792C15.8608 39.6508 16.1332 39.36 16.4963 39.1445C16.8595 38.926 17.295 38.8168 17.8028 38.8168C18.4368 38.8168 18.9554 39.0153 19.3585 39.4123C19.7617 39.8062 19.9633 40.4202 19.9633 41.2543V46H18.8738V41.2543C18.8738 40.7311 18.7307 40.3571 18.4445 40.1325C18.1582 39.9078 17.8212 39.7955 17.4335 39.7955C16.9349 39.7955 16.5486 39.9463 16.2747 40.2479C16.0008 40.5464 15.8639 40.925 15.8639 41.3835V46H14.7559V41.1435C14.7559 40.7403 14.6251 40.4156 14.3635 40.1694C14.1019 39.9201 13.7649 39.7955 13.3525 39.7955C13.0694 39.7955 12.8047 39.8709 12.5585 40.0217C12.3153 40.1725 12.1184 40.3817 11.9676 40.6495C11.8198 40.9142 11.746 41.2204 11.746 41.5682V46H10.6565ZM24.0419 46.1662C23.5926 46.1662 23.1848 46.0816 22.8186 45.9123C22.4523 45.7399 22.1615 45.4922 21.9461 45.169C21.7306 44.8428 21.6229 44.4489 21.6229 43.9872C21.6229 43.581 21.7029 43.2517 21.863 42.9993C22.023 42.7438 22.2369 42.5438 22.5047 42.3991C22.7724 42.2545 23.0679 42.1468 23.391 42.076C23.7173 42.0021 24.045 41.9437 24.3743 41.9006C24.8052 41.8452 25.1545 41.8036 25.4223 41.7759C25.6931 41.7451 25.8901 41.6944 26.0132 41.6236C26.1394 41.5528 26.2025 41.4297 26.2025 41.2543V41.2173C26.2025 40.7618 26.0778 40.4079 25.8285 40.1555C25.5823 39.9032 25.2084 39.777 24.7067 39.777C24.1866 39.777 23.7788 39.8909 23.4834 40.1186C23.1879 40.3464 22.9802 40.5895 22.8601 40.848L21.826 40.4787C22.0107 40.0478 22.2569 39.7124 22.5647 39.4723C22.8755 39.2292 23.2141 39.0599 23.5803 38.9645C23.9496 38.866 24.3128 38.8168 24.6698 38.8168C24.8975 38.8168 25.1591 38.8445 25.4546 38.8999C25.7531 38.9522 26.0409 39.0614 26.3179 39.2276C26.5979 39.3938 26.8303 39.6446 27.015 39.9801C27.1996 40.3156 27.2919 40.7649 27.2919 41.3281V46H26.2025V45.0398H26.1471C26.0732 45.1937 25.9501 45.3583 25.7777 45.5337C25.6054 45.7092 25.3761 45.8584 25.0899 45.9815C24.8037 46.1046 24.4544 46.1662 24.0419 46.1662ZM24.2081 45.1875C24.639 45.1875 25.0022 45.1029 25.2976 44.9336C25.5962 44.7643 25.8208 44.5458 25.9716 44.2781C26.1255 44.0103 26.2025 43.7287 26.2025 43.4332V42.4361C26.1563 42.4915 26.0547 42.5423 25.8978 42.5884C25.7439 42.6315 25.5654 42.67 25.3623 42.7038C25.1622 42.7346 24.9668 42.7623 24.776 42.7869C24.5882 42.8085 24.4359 42.8269 24.3189 42.8423C24.0358 42.8793 23.7711 42.9393 23.5249 43.0224C23.2818 43.1024 23.0848 43.224 22.934 43.3871C22.7863 43.5471 22.7124 43.7656 22.7124 44.0426C22.7124 44.4212 22.8524 44.7074 23.1325 44.9013C23.4156 45.0921 23.7742 45.1875 24.2081 45.1875ZM30.37 41.7344V46H29.2805V38.9091H30.3331V40.017H30.4254C30.5916 39.657 30.8439 39.3677 31.1825 39.1491C31.521 38.9276 31.9581 38.8168 32.4936 38.8168C32.9737 38.8168 33.3938 38.9152 33.7539 39.1122C34.1139 39.3061 34.394 39.6016 34.5941 39.9986C34.7941 40.3925 34.8941 40.8911 34.8941 41.4943V46H33.8046V41.5682C33.8046 41.0111 33.66 40.5772 33.3707 40.2663C33.0814 39.9524 32.6844 39.7955 32.1796 39.7955C31.8319 39.7955 31.521 39.8709 31.2471 40.0217C30.9763 40.1725 30.7624 40.3925 30.6054 40.6818C30.4485 40.9711 30.37 41.322 30.37 41.7344ZM38.9716 46.1662C38.5223 46.1662 38.1145 46.0816 37.7483 45.9123C37.382 45.7399 37.0912 45.4922 36.8758 45.169C36.6603 44.8428 36.5526 44.4489 36.5526 43.9872C36.5526 43.581 36.6326 43.2517 36.7927 42.9993C36.9527 42.7438 37.1666 42.5438 37.4343 42.3991C37.7021 42.2545 37.9976 42.1468 38.3207 42.076C38.6469 42.0021 38.9747 41.9437 39.304 41.9006C39.7349 41.8452 40.0842 41.8036 40.352 41.7759C40.6228 41.7451 40.8198 41.6944 40.9429 41.6236C41.0691 41.5528 41.1321 41.4297 41.1321 41.2543V41.2173C41.1321 40.7618 41.0075 40.4079 40.7582 40.1555C40.512 39.9032 40.1381 39.777 39.6364 39.777C39.1163 39.777 38.7085 39.8909 38.413 40.1186C38.1176 40.3464 37.9098 40.5895 37.7898 40.848L36.7557 40.4787C36.9404 40.0478 37.1866 39.7124 37.4944 39.4723C37.8052 39.2292 38.1437 39.0599 38.51 38.9645C38.8793 38.866 39.2425 38.8168 39.5995 38.8168C39.8272 38.8168 40.0888 38.8445 40.3843 38.8999C40.6828 38.9522 40.9706 39.0614 41.2476 39.2276C41.5276 39.3938 41.76 39.6446 41.9446 39.9801C42.1293 40.3156 42.2216 40.7649 42.2216 41.3281V46H41.1321V45.0398H41.0767C41.0029 45.1937 40.8798 45.3583 40.7074 45.5337C40.5351 45.7092 40.3058 45.8584 40.0196 45.9815C39.7334 46.1046 39.384 46.1662 38.9716 46.1662ZM39.1378 45.1875C39.5687 45.1875 39.9319 45.1029 40.2273 44.9336C40.5258 44.7643 40.7505 44.5458 40.9013 44.2781C41.0552 44.0103 41.1321 43.7287 41.1321 43.4332V42.4361C41.086 42.4915 40.9844 42.5423 40.8275 42.5884C40.6736 42.6315 40.4951 42.67 40.2919 42.7038C40.0919 42.7346 39.8965 42.7623 39.7057 42.7869C39.5179 42.8085 39.3656 42.8269 39.2486 42.8423C38.9655 42.8793 38.7008 42.9393 38.4546 43.0224C38.2115 43.1024 38.0145 43.224 37.8637 43.3871C37.716 43.5471 37.6421 43.7656 37.6421 44.0426C37.6421 44.4212 37.7821 44.7074 38.0622 44.9013C38.3453 45.0921 38.7039 45.1875 39.1378 45.1875ZM47.0724 48.8068C46.5461 48.8068 46.0937 48.7391 45.7152 48.6037C45.3366 48.4714 45.0211 48.2959 44.7688 48.0774C44.5195 47.862 44.321 47.6312 44.1733 47.3849L45.0411 46.7756C45.1396 46.9048 45.2643 47.0526 45.4151 47.2188C45.5659 47.388 45.7721 47.5342 46.0337 47.6573C46.2984 47.7835 46.6446 47.8466 47.0724 47.8466C47.6448 47.8466 48.1173 47.7081 48.4897 47.4311C48.8621 47.1541 49.0483 46.7202 49.0483 46.1293V44.6889H48.9559C48.8759 44.8182 48.762 44.9782 48.6143 45.169C48.4697 45.3568 48.2604 45.5245 47.9865 45.6722C47.7156 45.8169 47.3494 45.8892 46.8877 45.8892C46.3153 45.8892 45.8013 45.7538 45.3458 45.483C44.8934 45.2121 44.5349 44.8182 44.2702 44.3011C44.0086 43.7841 43.8778 43.1562 43.8778 42.4176C43.8778 41.6913 44.0055 41.0588 44.261 40.5202C44.5164 39.9786 44.8719 39.56 45.3274 39.2646C45.7829 38.966 46.3091 38.8168 46.9062 38.8168C47.3679 38.8168 47.7341 38.8937 48.0049 39.0476C48.2788 39.1984 48.4881 39.3707 48.6328 39.5646C48.7805 39.7554 48.8944 39.9124 48.9744 40.0355H49.0852V38.9091H50.1377V46.2031C50.1377 46.8125 49.9992 47.308 49.7223 47.6896C49.4483 48.0743 49.079 48.3559 48.6143 48.5344C48.1527 48.716 47.6387 48.8068 47.0724 48.8068ZM47.0355 44.9105C47.4725 44.9105 47.8418 44.8105 48.1434 44.6104C48.445 44.4104 48.6743 44.1226 48.8313 43.7472C48.9882 43.3717 49.0667 42.9223 49.0667 42.3991C49.0667 41.8883 48.9898 41.4374 48.8359 41.0465C48.682 40.6557 48.4543 40.3494 48.1527 40.1278C47.851 39.9062 47.4786 39.7955 47.0355 39.7955C46.5738 39.7955 46.1891 39.9124 45.8813 40.1463C45.5767 40.3802 45.3474 40.6941 45.1935 41.0881C45.0427 41.482 44.9673 41.919 44.9673 42.3991C44.9673 42.8916 45.0442 43.3271 45.1981 43.7056C45.3551 44.0811 45.5859 44.3765 45.8906 44.592C46.1983 44.8043 46.58 44.9105 47.0355 44.9105ZM55.1051 46.1477C54.4218 46.1477 53.8325 45.9969 53.337 45.6953C52.8445 45.3906 52.4644 44.9659 52.1967 44.4212C51.932 43.8733 51.7997 43.2363 51.7997 42.5099C51.7997 41.7836 51.932 41.1435 52.1967 40.5895C52.4644 40.0324 52.8368 39.5985 53.3139 39.2876C53.794 38.9737 54.3541 38.8168 54.9943 38.8168C55.3636 38.8168 55.7283 38.8783 56.0884 39.0014C56.4485 39.1245 56.7762 39.3246 57.0717 39.6016C57.3671 39.8755 57.6026 40.2386 57.778 40.6911C57.9534 41.1435 58.0411 41.7005 58.0411 42.3622V42.8239H52.5752V41.8821H56.9332C56.9332 41.482 56.8532 41.125 56.6931 40.8111C56.5362 40.4972 56.3115 40.2494 56.0191 40.0678C55.7298 39.8862 55.3882 39.7955 54.9943 39.7955C54.5603 39.7955 54.1849 39.9032 53.8679 40.1186C53.5539 40.331 53.3123 40.608 53.1431 40.9496C52.9738 41.2912 52.8892 41.6574 52.8892 42.0483V42.6761C52.8892 43.2116 52.9815 43.6656 53.1661 44.038C53.3539 44.4073 53.6139 44.6889 53.9463 44.8828C54.2787 45.0736 54.665 45.169 55.1051 45.169C55.3913 45.169 55.6498 45.129 55.8806 45.049C56.1145 44.9659 56.3161 44.8428 56.4854 44.6797C56.6547 44.5135 56.7855 44.3073 56.8778 44.0611L57.9304 44.3565C57.8196 44.7135 57.6334 45.0275 57.3718 45.2983C57.1102 45.5661 56.787 45.7753 56.4023 45.9261C56.0176 46.0739 55.5852 46.1477 55.1051 46.1477ZM59.6985 46V38.9091H60.751V39.9801H60.8249C60.9541 39.6293 61.188 39.3446 61.5266 39.1261C61.8651 38.9076 62.2468 38.7983 62.6715 38.7983C62.7515 38.7983 62.8515 38.7998 62.9715 38.8029C63.0916 38.806 63.1824 38.8106 63.2439 38.8168V39.9247C63.207 39.9155 63.1224 39.9016 62.99 39.8832C62.8608 39.8616 62.7238 39.8509 62.5791 39.8509C62.2344 39.8509 61.9267 39.9232 61.6559 40.0678C61.3881 40.2094 61.1757 40.4064 61.0188 40.6587C60.8649 40.908 60.788 41.1927 60.788 41.5128V46H59.6985Z" fill="#E4F1FE"/>
<path d="M29.8535 6.14453C29.8104 5.74136 29.6288 5.42744 29.3088 5.20277C28.9918 4.9781 28.5794 4.86577 28.0716 4.86577C27.7145 4.86577 27.4083 4.91963 27.1529 5.02734C26.8974 5.13506 26.702 5.28125 26.5666 5.46591C26.4312 5.65057 26.3619 5.86139 26.3588 6.09837C26.3588 6.29534 26.4035 6.46615 26.4927 6.6108C26.5851 6.75544 26.7097 6.87855 26.8667 6.98011C27.0236 7.0786 27.1975 7.16169 27.3883 7.2294C27.5791 7.29711 27.7715 7.35405 27.9654 7.40021L28.8517 7.6218C29.2087 7.7049 29.5519 7.81723 29.8812 7.95881C30.2136 8.10038 30.5106 8.27888 30.7722 8.49432C31.0369 8.70975 31.2462 8.96982 31.4 9.2745C31.5539 9.57919 31.6309 9.9362 31.6309 10.3455C31.6309 10.8995 31.4893 11.3873 31.2061 11.8089C30.923 12.2275 30.5137 12.5553 29.9782 12.7923C29.4457 13.0262 28.801 13.1431 28.0439 13.1431C27.3083 13.1431 26.6697 13.0292 26.128 12.8015C25.5894 12.5737 25.1678 12.2414 24.8631 11.8043C24.5615 11.3673 24.3984 10.8349 24.3738 10.207H26.0588C26.0834 10.5363 26.185 10.8103 26.3635 11.0288C26.542 11.2473 26.7743 11.4104 27.0605 11.5181C27.3498 11.6258 27.673 11.6797 28.03 11.6797C28.4024 11.6797 28.7286 11.6243 29.0087 11.5135C29.2918 11.3996 29.5134 11.2427 29.6735 11.0426C29.8335 10.8395 29.9151 10.6025 29.9181 10.3317C29.9151 10.0855 29.8427 9.88234 29.7012 9.7223C29.5596 9.55919 29.3611 9.42377 29.1056 9.31605C28.8533 9.20526 28.5578 9.10677 28.2193 9.0206L27.1436 8.74361C26.365 8.54356 25.7495 8.24041 25.2971 7.83416C24.8477 7.42483 24.623 6.88163 24.623 6.20454C24.623 5.64749 24.7739 5.15968 25.0755 4.74112C25.3801 4.32256 25.7941 3.99787 26.3173 3.76704C26.8405 3.53314 27.4329 3.41619 28.0946 3.41619C28.7656 3.41619 29.3534 3.53314 29.8581 3.76704C30.3659 3.99787 30.7645 4.31948 31.0538 4.73189C31.3431 5.14122 31.4924 5.6121 31.5016 6.14453H29.8535ZM33.1578 13V3.54545H34.8705V7.88956H34.9859L38.6744 3.54545H40.7657L37.1095 7.788L40.798 13H38.7391L35.9184 8.94673L34.8705 10.1839V13H33.1578ZM47.043 6.14453C46.9999 5.74136 46.8183 5.42744 46.4982 5.20277C46.1812 4.9781 45.7688 4.86577 45.261 4.86577C44.904 4.86577 44.5978 4.91963 44.3423 5.02734C44.0869 5.13506 43.8915 5.28125 43.756 5.46591C43.6206 5.65057 43.5514 5.86139 43.5483 6.09837C43.5483 6.29534 43.5929 6.46615 43.6822 6.6108C43.7745 6.75544 43.8991 6.87855 44.0561 6.98011C44.2131 7.0786 44.387 7.16169 44.5778 7.2294C44.7686 7.29711 44.9609 7.35405 45.1548 7.40021L46.0412 7.6218C46.3982 7.7049 46.7414 7.81723 47.0707 7.95881C47.4031 8.10038 47.7 8.27888 47.9616 8.49432C48.2263 8.70975 48.4356 8.96982 48.5895 9.2745C48.7434 9.57919 48.8203 9.9362 48.8203 10.3455C48.8203 10.8995 48.6787 11.3873 48.3956 11.8089C48.1125 12.2275 47.7031 12.5553 47.1676 12.7923C46.6352 13.0262 45.9904 13.1431 45.2333 13.1431C44.4978 13.1431 43.8591 13.0292 43.3175 12.8015C42.7789 12.5737 42.3572 12.2414 42.0526 11.8043C41.7509 11.3673 41.5878 10.8349 41.5632 10.207H43.2482C43.2728 10.5363 43.3744 10.8103 43.5529 11.0288C43.7314 11.2473 43.9638 11.4104 44.25 11.5181C44.5393 11.6258 44.8625 11.6797 45.2195 11.6797C45.5919 11.6797 45.9181 11.6243 46.1982 11.5135C46.4813 11.3996 46.7029 11.2427 46.8629 11.0426C47.023 10.8395 47.1045 10.6025 47.1076 10.3317C47.1045 10.0855 47.0322 9.88234 46.8906 9.7223C46.7491 9.55919 46.5505 9.42377 46.2951 9.31605C46.0427 9.20526 45.7473 9.10677 45.4087 9.0206L44.3331 8.74361C43.5545 8.54356 42.9389 8.24041 42.4865 7.83416C42.0372 7.42483 41.8125 6.88163 41.8125 6.20454C41.8125 5.64749 41.9633 5.15968 42.2649 4.74112C42.5696 4.32256 42.9835 3.99787 43.5067 3.76704C44.0299 3.53314 44.6224 3.41619 45.2841 3.41619C45.955 3.41619 46.5429 3.53314 47.0476 3.76704C47.5554 3.99787 47.954 4.31948 48.2433 4.73189C48.5326 5.14122 48.6818 5.6121 48.6911 6.14453H47.043Z" fill="#E4F1FE"/>
</svg>
