<svg width="81" height="52" viewBox="0 0 81 52" fill="none" xmlns="http://www.w3.org/2000/svg">
<path d="M1.59801 33V18.4545H6.78267C7.9143 18.4545 8.8518 18.6605 9.59517 19.0724C10.3385 19.4844 10.8949 20.0478 11.2642 20.7628C11.6335 21.473 11.8182 22.2732 11.8182 23.1634C11.8182 24.0582 11.6312 24.8632 11.2571 25.5781C10.8878 26.2884 10.3291 26.8518 9.58097 27.2685C8.83759 27.6804 7.90246 27.8864 6.77557 27.8864H3.21023V26.0256H6.5767C7.29167 26.0256 7.87169 25.9025 8.31676 25.6562C8.76184 25.4053 9.08854 25.0644 9.29688 24.6335C9.50521 24.2027 9.60938 23.7126 9.60938 23.1634C9.60938 22.6141 9.50521 22.1264 9.29688 21.7003C9.08854 21.2741 8.75947 20.9403 8.30966 20.6989C7.86458 20.4574 7.27746 20.3366 6.5483 20.3366H3.79261V33H1.59801ZM37.7575 18.4545V33H35.5629V18.4545H37.7575ZM58.3274 23.1847H56.1115C56.0263 22.7112 55.8677 22.2945 55.6357 21.9347C55.4036 21.5748 55.1196 21.2694 54.7834 21.0185C54.4472 20.7675 54.0708 20.5781 53.6541 20.4503C53.2422 20.3224 52.8042 20.2585 52.3402 20.2585C51.5021 20.2585 50.7517 20.4692 50.0888 20.8906C49.4306 21.312 48.9098 21.9299 48.5263 22.7443C48.1475 23.5587 47.9581 24.553 47.9581 25.7273C47.9581 26.911 48.1475 27.91 48.5263 28.7244C48.9098 29.5388 49.433 30.1544 50.0959 30.571C50.7588 30.9877 51.5045 31.196 52.3331 31.196C52.7924 31.196 53.228 31.1345 53.6399 31.0114C54.0566 30.8835 54.433 30.6965 54.7692 30.4503C55.1054 30.2041 55.3894 29.9034 55.6214 29.5483C55.8582 29.1884 56.0215 28.7765 56.1115 28.3125L58.3274 28.3196C58.209 29.0346 57.9794 29.6927 57.6385 30.294C57.3023 30.8906 56.8691 31.4067 56.3388 31.8423C55.8132 32.2732 55.2119 32.607 54.5348 32.8438C53.8577 33.0805 53.1191 33.1989 52.3189 33.1989C51.0594 33.1989 49.9373 32.9006 48.9524 32.304C47.9676 31.7027 47.1911 30.8433 46.6229 29.7259C46.0594 28.6084 45.7777 27.2756 45.7777 25.7273C45.7777 24.1742 46.0618 22.8414 46.63 21.7287C47.1982 20.6113 47.9747 19.7543 48.9595 19.1577C49.9444 18.5563 51.0642 18.2557 52.3189 18.2557C53.0907 18.2557 53.8104 18.367 54.478 18.5895C55.1503 18.8073 55.754 19.1293 56.2891 19.5554C56.8241 19.9768 57.2668 20.4929 57.6172 21.1037C57.9676 21.7098 58.2043 22.4034 58.3274 23.1847ZM66.2464 33V18.4545H75.3658V20.3438H68.4411V24.7756H74.8899V26.6577H68.4411V31.1108H75.451V33H66.2464Z" fill="#34495E"/>
<path d="M25.6923 20.288H28.8462L30 19H18.1538L17 20.288H19C21.0769 20.288 23 20.4 23.7692 21.688H18.1538L17 22.976H24V23.032C24 23.984 22.9231 25.44 19.3846 25.44H17.6154V26.672L24.5385 33H27.6923L20.4615 26.448C23.4615 26.336 26.2308 25.104 26.6154 22.976H28.8462L30 21.688H26.5385C26.4615 21.184 26.1538 20.68 25.6923 20.288Z" fill="#34495E"/>
<path d="M12.5577 46V38.9091H13.6103V40.017H13.7026C13.8503 39.6385 14.0888 39.3446 14.4181 39.1353C14.7475 38.9229 15.1429 38.8168 15.6046 38.8168C16.0724 38.8168 16.4617 38.9229 16.7725 39.1353C17.0865 39.3446 17.3311 39.6385 17.5066 40.017H17.5804C17.762 39.6508 18.0344 39.36 18.3975 39.1445C18.7607 38.926 19.1962 38.8168 19.704 38.8168C20.338 38.8168 20.8566 39.0153 21.2598 39.4123C21.6629 39.8062 21.8645 40.4202 21.8645 41.2543V46H20.775V41.2543C20.775 40.7311 20.6319 40.3571 20.3457 40.1325C20.0595 39.9078 19.7225 39.7955 19.3347 39.7955C18.8361 39.7955 18.4499 39.9463 18.176 40.2479C17.902 40.5464 17.7651 40.925 17.7651 41.3835V46H16.6571V41.1435C16.6571 40.7403 16.5263 40.4156 16.2647 40.1694C16.0031 39.9201 15.6661 39.7955 15.2537 39.7955C14.9706 39.7955 14.7059 39.8709 14.4597 40.0217C14.2166 40.1725 14.0196 40.3817 13.8688 40.6495C13.7211 40.9142 13.6472 41.2204 13.6472 41.5682V46H12.5577ZM25.9432 46.1662C25.4938 46.1662 25.0861 46.0816 24.7198 45.9123C24.3536 45.7399 24.0627 45.4922 23.8473 45.169C23.6319 44.8428 23.5241 44.4489 23.5241 43.9872C23.5241 43.581 23.6042 43.2517 23.7642 42.9993C23.9242 42.7438 24.1381 42.5438 24.4059 42.3991C24.6737 42.2545 24.9691 42.1468 25.2923 42.076C25.6185 42.0021 25.9463 41.9437 26.2756 41.9006C26.7064 41.8452 27.0558 41.8036 27.3235 41.7759C27.5943 41.7451 27.7913 41.6944 27.9144 41.6236C28.0406 41.5528 28.1037 41.4297 28.1037 41.2543V41.2173C28.1037 40.7618 27.979 40.4079 27.7298 40.1555C27.4835 39.9032 27.1096 39.777 26.608 39.777C26.0878 39.777 25.68 39.8909 25.3846 40.1186C25.0891 40.3464 24.8814 40.5895 24.7614 40.848L23.7273 40.4787C23.9119 40.0478 24.1581 39.7124 24.4659 39.4723C24.7768 39.2292 25.1153 39.0599 25.4815 38.9645C25.8509 38.866 26.214 38.8168 26.571 38.8168C26.7988 38.8168 27.0604 38.8445 27.3558 38.8999C27.6544 38.9522 27.9421 39.0614 28.2191 39.2276C28.4992 39.3938 28.7315 39.6446 28.9162 39.9801C29.1009 40.3156 29.1932 40.7649 29.1932 41.3281V46H28.1037V45.0398H28.0483C27.9744 45.1937 27.8513 45.3583 27.679 45.5337C27.5066 45.7092 27.2773 45.8584 26.9911 45.9815C26.7049 46.1046 26.3556 46.1662 25.9432 46.1662ZM26.1094 45.1875C26.5402 45.1875 26.9034 45.1029 27.1989 44.9336C27.4974 44.7643 27.7221 44.5458 27.8729 44.2781C28.0268 44.0103 28.1037 43.7287 28.1037 43.4332V42.4361C28.0575 42.4915 27.956 42.5423 27.799 42.5884C27.6451 42.6315 27.4666 42.67 27.2635 42.7038C27.0634 42.7346 26.868 42.7623 26.6772 42.7869C26.4895 42.8085 26.3371 42.8269 26.2202 42.8423C25.937 42.8793 25.6723 42.9393 25.4261 43.0224C25.183 43.1024 24.986 43.224 24.8352 43.3871C24.6875 43.5471 24.6136 43.7656 24.6136 44.0426C24.6136 44.4212 24.7537 44.7074 25.0337 44.9013C25.3169 45.0921 25.6754 45.1875 26.1094 45.1875ZM32.2712 41.7344V46H31.1817V38.9091H32.2343V40.017H32.3266C32.4928 39.657 32.7452 39.3677 33.0837 39.1491C33.4223 38.9276 33.8593 38.8168 34.3948 38.8168C34.8749 38.8168 35.295 38.9152 35.6551 39.1122C36.0152 39.3061 36.2952 39.6016 36.4953 39.9986C36.6953 40.3925 36.7954 40.8911 36.7954 41.4943V46H35.7059V41.5682C35.7059 41.0111 35.5612 40.5772 35.2719 40.2663C34.9826 39.9524 34.5856 39.7955 34.0809 39.7955C33.7331 39.7955 33.4223 39.8709 33.1483 40.0217C32.8775 40.1725 32.6636 40.3925 32.5067 40.6818C32.3497 40.9711 32.2712 41.322 32.2712 41.7344ZM40.8729 46.1662C40.4235 46.1662 40.0157 46.0816 39.6495 45.9123C39.2833 45.7399 38.9924 45.4922 38.777 45.169C38.5616 44.8428 38.4538 44.4489 38.4538 43.9872C38.4538 43.581 38.5339 43.2517 38.6939 42.9993C38.8539 42.7438 39.0678 42.5438 39.3356 42.3991C39.6033 42.2545 39.8988 42.1468 40.2219 42.076C40.5482 42.0021 40.8759 41.9437 41.2053 41.9006C41.6361 41.8452 41.9854 41.8036 42.2532 41.7759C42.524 41.7451 42.721 41.6944 42.8441 41.6236C42.9703 41.5528 43.0334 41.4297 43.0334 41.2543V41.2173C43.0334 40.7618 42.9087 40.4079 42.6594 40.1555C42.4132 39.9032 42.0393 39.777 41.5376 39.777C41.0175 39.777 40.6097 39.8909 40.3143 40.1186C40.0188 40.3464 39.8111 40.5895 39.6911 40.848L38.657 40.4787C38.8416 40.0478 39.0878 39.7124 39.3956 39.4723C39.7064 39.2292 40.045 39.0599 40.4112 38.9645C40.7805 38.866 41.1437 38.8168 41.5007 38.8168C41.7285 38.8168 41.9901 38.8445 42.2855 38.8999C42.584 38.9522 42.8718 39.0614 43.1488 39.2276C43.4289 39.3938 43.6612 39.6446 43.8459 39.9801C44.0305 40.3156 44.1229 40.7649 44.1229 41.3281V46H43.0334V45.0398H42.978C42.9041 45.1937 42.781 45.3583 42.6087 45.5337C42.4363 45.7092 42.207 45.8584 41.9208 45.9815C41.6346 46.1046 41.2853 46.1662 40.8729 46.1662ZM41.0391 45.1875C41.4699 45.1875 41.8331 45.1029 42.1286 44.9336C42.4271 44.7643 42.6518 44.5458 42.8026 44.2781C42.9564 44.0103 43.0334 43.7287 43.0334 43.4332V42.4361C42.9872 42.4915 42.8857 42.5423 42.7287 42.5884C42.5748 42.6315 42.3963 42.67 42.1932 42.7038C41.9931 42.7346 41.7977 42.7623 41.6069 42.7869C41.4192 42.8085 41.2668 42.8269 41.1499 42.8423C40.8667 42.8793 40.602 42.9393 40.3558 43.0224C40.1127 43.1024 39.9157 43.224 39.7649 43.3871C39.6172 43.5471 39.5433 43.7656 39.5433 44.0426C39.5433 44.4212 39.6834 44.7074 39.9634 44.9013C40.2466 45.0921 40.6051 45.1875 41.0391 45.1875ZM48.9736 48.8068C48.4474 48.8068 47.9949 48.7391 47.6164 48.6037C47.2378 48.4714 46.9224 48.2959 46.67 48.0774C46.4207 47.862 46.2222 47.6312 46.0745 47.3849L46.9424 46.7756C47.0409 46.9048 47.1655 47.0526 47.3163 47.2188C47.4671 47.388 47.6733 47.5342 47.9349 47.6573C48.1996 47.7835 48.5458 47.8466 48.9736 47.8466C49.5461 47.8466 50.0185 47.7081 50.3909 47.4311C50.7633 47.1541 50.9495 46.7202 50.9495 46.1293V44.6889H50.8572C50.7771 44.8182 50.6633 44.9782 50.5155 45.169C50.3709 45.3568 50.1616 45.5245 49.8877 45.6722C49.6169 45.8169 49.2506 45.8892 48.789 45.8892C48.2165 45.8892 47.7026 45.7538 47.2471 45.483C46.7947 45.2121 46.4361 44.8182 46.1714 44.3011C45.9098 43.7841 45.779 43.1562 45.779 42.4176C45.779 41.6913 45.9068 41.0588 46.1622 40.5202C46.4176 39.9786 46.7731 39.56 47.2286 39.2646C47.6841 38.966 48.2104 38.8168 48.8074 38.8168C49.2691 38.8168 49.6353 38.8937 49.9062 39.0476C50.1801 39.1984 50.3894 39.3707 50.534 39.5646C50.6817 39.7554 50.7956 39.9124 50.8756 40.0355H50.9864V38.9091H52.039V46.2031C52.039 46.8125 51.9005 47.308 51.6235 47.6896C51.3496 48.0743 50.9803 48.3559 50.5155 48.5344C50.0539 48.716 49.5399 48.8068 48.9736 48.8068ZM48.9367 44.9105C49.3737 44.9105 49.743 44.8105 50.0447 44.6104C50.3463 44.4104 50.5756 44.1226 50.7325 43.7472C50.8895 43.3717 50.968 42.9223 50.968 42.3991C50.968 41.8883 50.891 41.4374 50.7371 41.0465C50.5832 40.6557 50.3555 40.3494 50.0539 40.1278C49.7523 39.9062 49.3799 39.7955 48.9367 39.7955C48.4751 39.7955 48.0903 39.9124 47.7826 40.1463C47.4779 40.3802 47.2486 40.6941 47.0947 41.0881C46.9439 41.482 46.8685 41.919 46.8685 42.3991C46.8685 42.8916 46.9455 43.3271 47.0993 43.7056C47.2563 44.0811 47.4871 44.3765 47.7918 44.592C48.0996 44.8043 48.4812 44.9105 48.9367 44.9105ZM57.0063 46.1477C56.3231 46.1477 55.7337 45.9969 55.2382 45.6953C54.7458 45.3906 54.3657 44.9659 54.0979 44.4212C53.8332 43.8733 53.7009 43.2363 53.7009 42.5099C53.7009 41.7836 53.8332 41.1435 54.0979 40.5895C54.3657 40.0324 54.7381 39.5985 55.2151 39.2876C55.6952 38.9737 56.2554 38.8168 56.8955 38.8168C57.2648 38.8168 57.6295 38.8783 57.9896 39.0014C58.3497 39.1245 58.6775 39.3246 58.9729 39.6016C59.2684 39.8755 59.5038 40.2386 59.6792 40.6911C59.8547 41.1435 59.9424 41.7005 59.9424 42.3622V42.8239H54.4765V41.8821H58.8344C58.8344 41.482 58.7544 41.125 58.5944 40.8111C58.4374 40.4972 58.2127 40.2494 57.9204 40.0678C57.6311 39.8862 57.2894 39.7955 56.8955 39.7955C56.4616 39.7955 56.0861 39.9032 55.7691 40.1186C55.4552 40.331 55.2136 40.608 55.0443 40.9496C54.875 41.2912 54.7904 41.6574 54.7904 42.0483V42.6761C54.7904 43.2116 54.8827 43.6656 55.0674 44.038C55.2551 44.4073 55.5152 44.6889 55.8476 44.8828C56.18 45.0736 56.5662 45.169 57.0063 45.169C57.2925 45.169 57.551 45.129 57.7819 45.049C58.0158 44.9659 58.2174 44.8428 58.3866 44.6797C58.5559 44.5135 58.6867 44.3073 58.779 44.0611L59.8316 44.3565C59.7208 44.7135 59.5346 45.0275 59.273 45.2983C59.0114 45.5661 58.6882 45.7753 58.3035 45.9261C57.9188 46.0739 57.4864 46.1477 57.0063 46.1477ZM61.5997 46V38.9091H62.6523V39.9801H62.7261C62.8554 39.6293 63.0893 39.3446 63.4278 39.1261C63.7664 38.9076 64.148 38.7983 64.5727 38.7983C64.6527 38.7983 64.7528 38.7998 64.8728 38.8029C64.9928 38.806 65.0836 38.8106 65.1452 38.8168V39.9247C65.1082 39.9155 65.0236 39.9016 64.8912 39.8832C64.762 39.8616 64.625 39.8509 64.4804 39.8509C64.1357 39.8509 63.8279 39.9232 63.5571 40.0678C63.2893 40.2094 63.077 40.4064 62.92 40.6587C62.7661 40.908 62.6892 41.1927 62.6892 41.5128V46H61.5997Z" fill="#34495E"/>
<path d="M31.7547 6.14453C31.7117 5.74136 31.5301 5.42744 31.21 5.20277C30.893 4.9781 30.4806 4.86577 29.9728 4.86577C29.6158 4.86577 29.3096 4.91963 29.0541 5.02734C28.7987 5.13506 28.6032 5.28125 28.4678 5.46591C28.3324 5.65057 28.2632 5.86139 28.2601 6.09837C28.2601 6.29534 28.3047 6.46615 28.394 6.6108C28.4863 6.75544 28.6109 6.87855 28.7679 6.98011C28.9248 7.0786 29.0987 7.16169 29.2896 7.2294C29.4804 7.29711 29.6727 7.35405 29.8666 7.40021L30.753 7.6218C31.11 7.7049 31.4531 7.81723 31.7824 7.95881C32.1148 8.10038 32.4118 8.27888 32.6734 8.49432C32.9381 8.70975 33.1474 8.96982 33.3013 9.2745C33.4552 9.57919 33.5321 9.9362 33.5321 10.3455C33.5321 10.8995 33.3905 11.3873 33.1074 11.8089C32.8242 12.2275 32.4149 12.5553 31.8794 12.7923C31.347 13.0262 30.7022 13.1431 29.9451 13.1431C29.2095 13.1431 28.5709 13.0292 28.0293 12.8015C27.4907 12.5737 27.069 12.2414 26.7643 11.8043C26.4627 11.3673 26.2996 10.8349 26.275 10.207H27.96C27.9846 10.5363 28.0862 10.8103 28.2647 11.0288C28.4432 11.2473 28.6756 11.4104 28.9618 11.5181C29.2511 11.6258 29.5742 11.6797 29.9312 11.6797C30.3036 11.6797 30.6299 11.6243 30.9099 11.5135C31.1931 11.3996 31.4147 11.2427 31.5747 11.0426C31.7347 10.8395 31.8163 10.6025 31.8194 10.3317C31.8163 10.0855 31.744 9.88234 31.6024 9.7223C31.4608 9.55919 31.2623 9.42377 31.0069 9.31605C30.7545 9.20526 30.4591 9.10677 30.1205 9.0206L29.0449 8.74361C28.2662 8.54356 27.6507 8.24041 27.1983 7.83416C26.7489 7.42483 26.5243 6.88163 26.5243 6.20454C26.5243 5.64749 26.6751 5.15968 26.9767 4.74112C27.2814 4.32256 27.6953 3.99787 28.2185 3.76704C28.7417 3.53314 29.3342 3.41619 29.9959 3.41619C30.6668 3.41619 31.2546 3.53314 31.7594 3.76704C32.2672 3.99787 32.6657 4.31948 32.955 4.73189C33.2443 5.14122 33.3936 5.6121 33.4028 6.14453H31.7547ZM35.059 13V3.54545H36.7717V7.88956H36.8871L40.5757 3.54545H42.6669L39.0107 7.788L42.6993 13H40.6403L37.8196 8.94673L36.7717 10.1839V13H35.059ZM48.9442 6.14453C48.9011 5.74136 48.7195 5.42744 48.3995 5.20277C48.0825 4.9781 47.6701 4.86577 47.1622 4.86577C46.8052 4.86577 46.499 4.91963 46.2436 5.02734C45.9881 5.13506 45.7927 5.28125 45.6573 5.46591C45.5219 5.65057 45.4526 5.86139 45.4495 6.09837C45.4495 6.29534 45.4942 6.46615 45.5834 6.6108C45.6757 6.75544 45.8004 6.87855 45.9573 6.98011C46.1143 7.0786 46.2882 7.16169 46.479 7.2294C46.6698 7.29711 46.8622 7.35405 47.0561 7.40021L47.9424 7.6218C48.2994 7.7049 48.6426 7.81723 48.9719 7.95881C49.3043 8.10038 49.6013 8.27888 49.8629 8.49432C50.1276 8.70975 50.3368 8.96982 50.4907 9.2745C50.6446 9.57919 50.7215 9.9362 50.7215 10.3455C50.7215 10.8995 50.58 11.3873 50.2968 11.8089C50.0137 12.2275 49.6044 12.5553 49.0688 12.7923C48.5364 13.0262 47.8916 13.1431 47.1345 13.1431C46.399 13.1431 45.7604 13.0292 45.2187 12.8015C44.6801 12.5737 44.2585 12.2414 43.9538 11.8043C43.6522 11.3673 43.4891 10.8349 43.4644 10.207H45.1495C45.1741 10.5363 45.2756 10.8103 45.4541 11.0288C45.6326 11.2473 45.865 11.4104 46.1512 11.5181C46.4405 11.6258 46.7637 11.6797 47.1207 11.6797C47.4931 11.6797 47.8193 11.6243 48.0994 11.5135C48.3825 11.3996 48.6041 11.2427 48.7642 11.0426C48.9242 10.8395 49.0058 10.6025 49.0088 10.3317C49.0058 10.0855 48.9334 9.88234 48.7919 9.7223C48.6503 9.55919 48.4518 9.42377 48.1963 9.31605C47.944 9.20526 47.6485 9.10677 47.31 9.0206L46.2343 8.74361C45.4557 8.54356 44.8402 8.24041 44.3877 7.83416C43.9384 7.42483 43.7137 6.88163 43.7137 6.20454C43.7137 5.64749 43.8645 5.15968 44.1661 4.74112C44.4708 4.32256 44.8848 3.99787 45.408 3.76704C45.9312 3.53314 46.5236 3.41619 47.1853 3.41619C47.8563 3.41619 48.4441 3.53314 48.9488 3.76704C49.4566 3.99787 49.8552 4.31948 50.1445 4.73189C50.4338 5.14122 50.5831 5.6121 50.5923 6.14453H48.9442Z" fill="#34495E"/>
</svg>
